<svg xmlns="http://www.w3.org/2000/svg" xmlns:xlink="http://www.w3.org/1999/xlink" viewBox="0 0 800 800">
  <defs>
    <filter id="b" x="71.11" y="142.22" width="586.67" height="586.67" filterUnits="userSpaceOnUse" color-interpolation-filters="sRGB">
      <feColorMatrix values="-1 0 0 0 1 0 -1 0 0 1 0 0 -1 0 1 0 0 0 1 0" result="invert"/>
      <feFlood flood-color="#fff" result="bg"/>
      <feBlend in="invert" in2="bg"/>
    </filter>
    <mask id="a" x="71.11" y="142.22" width="586.67" height="586.67" maskUnits="userSpaceOnUse">
      <g filter="url(#b)">
        <path d="M271.58,594.49a63.45,63.45,0,0,0,34.83-35.73,73.85,73.85,0,0,0,5-27.56V343.47H263.32V534.76q0,10.31-7,16.89A23.12,23.12,0,0,1,240,558.22a34,34,0,0,1-11.31-2,28.75,28.75,0,0,1-9.88-5.87l-20.47,32.36a63.32,63.32,0,0,0,21.91,12.62,81,81,0,0,0,25.86,4.09A65.2,65.2,0,0,0,271.58,594.49Zm39.86-277V270.22H263.32v47.29Z" fill="#fff"/>
        <path d="M444.31,524.8a83.14,83.14,0,0,0,30.53-24.89l1.08,10.31a25.48,25.48,0,0,0,9,15.82q7.18,5.87,20.83,6.22,4.31,0,10.23-.53a113.07,113.07,0,0,0,12.75-2V489.24q-7.19-.35-10.06-3.56T515.78,475v-58q0-37.33-22.44-57.07t-63-19.73q-42,0-78.29,23.82l14.72,30.22a137.24,137.24,0,0,1,29.45-15.64,84,84,0,0,1,29.45-5.33q20.82,0,31.42,10t10.59,28.44V422.4a101.17,101.17,0,0,0-21.37-6,140.67,140.67,0,0,0-24.6-2.13,111.51,111.51,0,0,0-32.32,4.44,82.28,82.28,0,0,0-25.32,12.27,56,56,0,0,0-16.52,19,51.29,51.29,0,0,0-5.93,24.36,56,56,0,0,0,4.85,23.47,58,58,0,0,0,13.47,18.67,61.37,61.37,0,0,0,20.47,12.44,72.07,72.07,0,0,0,25.5,4.44A88.39,88.39,0,0,0,444.31,524.8Zm-47.76-34.31a25.34,25.34,0,0,1-9.34-20.09q0-12.8,11.85-21.16t30.52-8.36a101.86,101.86,0,0,1,19.39,2A119,119,0,0,1,467.65,448v21.33q0,7.47-7.9,13.51-6.11,7.12-17.06,11.38a63.28,63.28,0,0,1-23.16,4.27Q405.88,498.49,396.55,490.49Z" fill="#fff"/>
      </g>
    </mask>
  </defs>
  <title>logo</title>
  <g mask="url(#a)">
    <path d="M71.11,142.22H657.78V728.89H71.11Z" fill="#646464" fill-rule="evenodd"/>
  </g>
  <path d="M71.11,0H800V728.89H728.89V71.11H71.11Z" fill="#646464" fill-rule="evenodd"/>
  <path d="M657.78,728.89h71.11V800H657.78Z" fill="#646464" fill-rule="evenodd"/>
  <path d="M0,71.11H71.11v71.11H0Z" fill="#646464" fill-rule="evenodd"/>
</svg>
